<?xml version="1.0" encoding="iso-8859-1"?>
<!-- Uploaded to: SVG Repo, www.svgrepo.com, Generator: SVG Repo Mixer Tools -->
<svg height="800px" width="800px" version="1.1" id="Capa_1" xmlns="http://www.w3.org/2000/svg" xmlns:xlink="http://www.w3.org/1999/xlink" 
	 viewBox="0 0 19.883 19.883" xml:space="preserve">
<g>
	<path style="fill:#030104;" d="M19.883,9.416V9.048c-1.299-0.666-2.291-1.721-2.749-2.999l-0.019,0.008V6.037h-1.29v0.01
		l-0.013-0.005c-0.806,2.246-3.168,3.429-5.882,3.429c-2.713,0-5.075-1.182-5.881-3.424l-0.025,0.01v-0.02H2.74v0.051
		C2.272,7.348,1.288,8.392,0,9.049v0.367c0.232-0.108,0.449-0.24,0.663-0.374v1.735H0.009v0.707H2.74v2.361h1.284v-2.361h11.801
		v2.361h1.29v-2.361h2.768v-0.705H19.23V9.045C19.441,9.175,19.654,9.306,19.883,9.416z M1.845,10.779H0.841V8.944
		c0.372-0.248,0.701-0.542,1.004-0.855V10.779z M2.74,10.779H2.022V7.896C2.295,7.592,2.543,7.27,2.74,6.92V10.779z M4.81,10.779
		H4.024V6.852C4.236,7.25,4.509,7.595,4.81,7.911V10.779z M6.238,10.779H4.989V8.104c0.367,0.347,0.789,0.632,1.249,0.87V10.779z
		 M7.667,10.779H6.418V9.071C6.807,9.258,7.23,9.396,7.667,9.508V10.779z M9.096,10.779h-1.25V9.557
		c0.404,0.094,0.818,0.164,1.25,0.2V10.779z M10.525,10.779h-1.25V9.765C9.492,9.782,9.708,9.798,9.93,9.798
		c0.201,0,0.398-0.017,0.595-0.027C10.525,9.771,10.525,10.779,10.525,10.779z M11.953,10.779h-1.25V9.76
		c0.431-0.033,0.846-0.097,1.25-0.188V10.779z M13.381,10.779h-1.249V9.528c0.438-0.11,0.858-0.248,1.249-0.429V10.779z
		 M14.811,10.779h-1.252V9.008c0.461-0.229,0.883-0.507,1.252-0.841V10.779z M15.825,10.779h-0.837V7.978
		c0.324-0.326,0.611-0.688,0.837-1.107V10.779z M17.869,10.779h-0.754V6.853c0.201,0.377,0.466,0.721,0.754,1.046V10.779z
		 M19.055,10.779h-1.008V8.091c0.305,0.312,0.635,0.604,1.008,0.852V10.779z"/>
</g>
</svg>