<svg xmlns="http://www.w3.org/2000/svg" xmlns:xlink="http://www.w3.org/1999/xlink" width="89px" height="19px" viewBox="0 0 89 19"><title>logo</title><g id="Page-1" stroke="none" stroke-width="1" fill="none" fill-rule="evenodd"><g id="Home-1---Big-Construction-Company-1" transform="translate(-1177.000000, -8284.000000)" fill="#0A0909" fill-rule="nonzero"><g id="Group-57" transform="translate(93.000000, 8252.000000)"><g id="Group-21" transform="translate(315.000000, 23.000000)"><g id="logo" transform="translate(769.000000, 9.000000)"><path d="M5.12489862,19 C10.6107056,19 13.9310624,16.8299492 13.9310624,12.2246193 L13.9310624,0.409898477 L3.63314409,0.409898477 L3.63314409,3.42385787 L10.0813733,3.42385787 L10.0813733,12.1281726 C10.0813733,14.322335 8.08434712,15.7208122 4.28277913,15.7208122 C2.88726683,15.7208122 1.44363341,15.5279188 0,15.069797 L0,18.2525381 C1.3955123,18.7106599 3.15193295,19 5.12489862,19 Z M27.2846715,18.927665 C33.829143,18.927665 37.9916194,15.1903553 37.9916194,9.45177665 C37.9916194,3.73730964 33.829143,0 27.2846715,0 C20.7402001,0 16.5777237,3.73730964 16.5777237,9.45177665 C16.5777237,15.1903553 20.7402001,18.927665 27.2846715,18.927665 Z M27.2846715,15.7449239 C23.1221952,15.7449239 20.4274128,13.285533 20.4274128,9.45177665 C20.4274128,5.6180203 23.1221952,3.13451777 27.2846715,3.13451777 C31.4471479,3.13451777 34.1419303,5.6180203 34.1419303,9.45177665 C34.1419303,13.285533 31.4471479,15.7449239 27.2846715,15.7449239 Z M55.9167343,18.4936548 L55.9167343,15.3591371 L44.6082725,15.3591371 L44.6082725,0.409898477 L40.7585834,0.409898477 L40.7585834,18.4936548 L55.9167343,18.4936548 Z M62.4130846,18.4936548 L62.4130846,0.409898477 L58.5633955,0.409898477 L58.5633955,18.4936548 L62.4130846,18.4936548 Z M82.214923,18.4936548 L82.214923,15.3591371 L69.6312517,15.3591371 L69.6312517,10.8261421 L80.7231684,10.8261421 L80.7231684,7.78807107 L69.6312517,7.78807107 L69.6312517,3.54441624 L82.0224385,3.54441624 L82.0224385,0.409898477 L65.7815626,0.409898477 L65.7815626,18.4936548 L82.214923,18.4936548 Z M89,18.4936548 L89,14.6357868 L84.9097053,14.6357868 L84.9097053,18.4936548 L89,18.4936548 Z" id="Shape"></path></g></g></g></g></g></svg>