<svg xmlns="http://www.w3.org/2000/svg" xmlns:xlink="http://www.w3.org/1999/xlink" width="147px" height="78px" viewBox="0 0 147 78"><title>logo-footer</title><g id="Page-1" stroke="none" stroke-width="1" fill="none" fill-rule="evenodd"><g id="Home-1---Big-Construction-Company-1" transform="translate(-93.000000, -9162.000000)"><g id="footer" transform="translate(0.000000, 8992.000000)"><g id="logo-footer" transform="translate(93.368000, 171.000000)"><g id="logo" transform="translate(0.632000, 0.000000)" stroke="#000000" stroke-linecap="round" stroke-linejoin="round" stroke-width="1.31072"><polygon id="Path" points="33.3793103 0 33.3793103 44 0 44 0 15.0978811"></polygon><polyline id="Path" points="66.7586207 44 66.7586207 15.0978811 33.3793103 0"></polyline><polyline id="Path" points="59.9310345 44 59.9310345 26.5588332 40.2068966 17.4482759 40.2068966 44"></polyline></g><path d="M2.682,76 L2.682,72.328 L4.68,70.528 L8.136,76 L11.34,76 L6.534,68.674 L11.25,63.652 L7.938,63.652 L2.682,69.268 L2.682,63.652 L0,63.652 L0,76 L2.682,76 Z M18.81,76.216 C20.142,76.216 21.279,75.982 22.221,75.514 C23.163,75.046 23.886,74.338 24.39,73.39 C24.894,72.442 25.146,71.254 25.146,69.826 C25.146,68.374 24.894,67.177 24.39,66.235 C23.886,65.293 23.163,64.591 22.221,64.129 C21.279,63.667 20.142,63.436 18.81,63.436 C17.502,63.436 16.374,63.667 15.426,64.129 C14.478,64.591 13.752,65.293 13.248,66.235 C12.744,67.177 12.492,68.374 12.492,69.826 C12.492,71.254 12.744,72.442 13.248,73.39 C13.752,74.338 14.478,75.046 15.426,75.514 C16.374,75.982 17.502,76.216 18.81,76.216 Z M18.81,74.02 C18.234,74.02 17.724,73.936 17.28,73.768 C16.836,73.6 16.464,73.348 16.164,73.012 C15.864,72.676 15.639,72.265 15.489,71.779 C15.339,71.293 15.264,70.738 15.264,70.114 L15.264,70.114 L15.264,69.556 C15.264,68.92 15.339,68.356 15.489,67.864 C15.639,67.372 15.864,66.961 16.164,66.631 C16.464,66.301 16.836,66.052 17.28,65.884 C17.724,65.716 18.234,65.632 18.81,65.632 C19.398,65.632 19.914,65.716 20.358,65.884 C20.802,66.052 21.174,66.301 21.474,66.631 C21.774,66.961 22.002,67.372 22.158,67.864 C22.314,68.356 22.392,68.92 22.392,69.556 L22.392,69.556 L22.392,70.114 C22.392,70.738 22.314,71.293 22.158,71.779 C22.002,72.265 21.774,72.676 21.474,73.012 C21.174,73.348 20.802,73.6 20.358,73.768 C19.914,73.936 19.398,74.02 18.81,74.02 Z M29.862,76 L29.862,68.152 L29.952,68.152 C30.012,68.26 30.108,68.416 30.24,68.62 C30.372,68.824 30.498,69.01 30.618,69.178 L30.618,69.178 L35.694,76 L38.16,76 L38.16,63.652 L35.622,63.652 L35.622,71.446 L35.532,71.446 C35.496,71.362 35.43,71.248 35.334,71.104 C35.238,70.96 35.136,70.813 35.028,70.663 C34.92,70.513 34.83,70.396 34.758,70.312 L34.758,70.312 L29.79,63.652 L27.324,63.652 L27.324,76 L29.862,76 Z M45.702,76.216 C46.722,76.216 47.628,76.084 48.42,75.82 C49.212,75.556 49.836,75.136 50.292,74.56 C50.748,73.984 50.976,73.222 50.976,72.274 C50.976,71.722 50.868,71.248 50.652,70.852 C50.436,70.456 50.148,70.123 49.788,69.853 C49.428,69.583 49.02,69.358 48.564,69.178 C48.108,68.998 47.64,68.842 47.16,68.71 C46.68,68.578 46.212,68.458 45.756,68.35 C45.3,68.242 44.889,68.119 44.523,67.981 C44.157,67.843 43.869,67.681 43.659,67.495 C43.449,67.309 43.344,67.072 43.344,66.784 C43.344,66.532 43.437,66.313 43.623,66.127 C43.809,65.941 44.079,65.8 44.433,65.704 C44.787,65.608 45.216,65.56 45.72,65.56 C46.188,65.56 46.596,65.626 46.944,65.758 C47.292,65.89 47.562,66.07 47.754,66.298 C47.946,66.526 48.042,66.802 48.042,67.126 L48.042,67.126 L48.042,67.27 L50.652,67.27 L50.652,67.054 C50.652,66.43 50.523,65.89 50.265,65.434 C50.007,64.978 49.65,64.6 49.194,64.3 C48.738,64 48.21,63.781 47.61,63.643 C47.01,63.505 46.374,63.436 45.702,63.436 C44.982,63.436 44.316,63.505 43.704,63.643 C43.092,63.781 42.552,63.994 42.084,64.282 C41.616,64.57 41.253,64.936 40.995,65.38 C40.737,65.824 40.608,66.352 40.608,66.964 C40.608,67.54 40.716,68.032 40.932,68.44 C41.148,68.848 41.436,69.184 41.796,69.448 C42.156,69.712 42.564,69.937 43.02,70.123 C43.476,70.309 43.944,70.465 44.424,70.591 C44.904,70.717 45.372,70.84 45.828,70.96 C46.284,71.08 46.695,71.212 47.061,71.356 C47.427,71.5 47.715,71.674 47.925,71.878 C48.135,72.082 48.24,72.346 48.24,72.67 C48.24,72.85 48.207,73.012 48.141,73.156 C48.075,73.3 47.973,73.426 47.835,73.534 C47.697,73.642 47.523,73.735 47.313,73.813 C47.103,73.891 46.863,73.951 46.593,73.993 C46.323,74.035 46.014,74.056 45.666,74.056 C45.126,74.056 44.652,73.99 44.244,73.858 C43.836,73.726 43.527,73.528 43.317,73.264 C43.107,73 43.002,72.676 43.002,72.292 L43.002,72.292 L43.002,72.13 C43.002,72.07 43.008,72.022 43.02,71.986 L43.02,71.986 L40.356,71.986 C40.344,72.022 40.338,72.073 40.338,72.139 L40.338,72.139 L40.338,72.328 C40.338,73.024 40.479,73.615 40.761,74.101 C41.043,74.587 41.433,74.989 41.931,75.307 C42.429,75.625 43.002,75.856 43.65,76 C44.298,76.144 44.982,76.216 45.702,76.216 Z M58.86,76 L58.86,65.902 L62.838,65.902 L62.838,63.652 L52.2,63.652 L52.2,65.902 L56.16,65.902 L56.16,76 L58.86,76 Z M67.338,76 L67.338,71.5 L70.776,71.5 L72.954,76 L75.924,76 L73.404,71.05 C74.088,70.726 74.61,70.255 74.97,69.637 C75.33,69.019 75.51,68.308 75.51,67.504 C75.51,66.748 75.36,66.079 75.06,65.497 C74.76,64.915 74.307,64.462 73.701,64.138 C73.095,63.814 72.336,63.652 71.424,63.652 L71.424,63.652 L64.656,63.652 L64.656,76 L67.338,76 Z M71.064,69.376 L67.338,69.376 L67.338,65.83 L71.064,65.83 C71.436,65.83 71.748,65.896 72,66.028 C72.252,66.16 72.444,66.355 72.576,66.613 C72.708,66.871 72.774,67.18 72.774,67.54 C72.774,68.104 72.624,68.551 72.324,68.881 C72.024,69.211 71.604,69.376 71.064,69.376 L71.064,69.376 Z M83.142,76.216 C84.282,76.216 85.257,76.036 86.067,75.676 C86.877,75.316 87.498,74.773 87.93,74.047 C88.362,73.321 88.578,72.418 88.578,71.338 L88.578,71.338 L88.578,63.652 L85.878,63.652 L85.878,71.266 C85.878,72.154 85.641,72.835 85.167,73.309 C84.693,73.783 84.018,74.02 83.142,74.02 C82.266,74.02 81.594,73.783 81.126,73.309 C80.658,72.835 80.424,72.154 80.424,71.266 L80.424,71.266 L80.424,63.652 L77.724,63.652 L77.724,71.338 C77.724,72.418 77.94,73.321 78.372,74.047 C78.804,74.773 79.425,75.316 80.235,75.676 C81.045,76.036 82.014,76.216 83.142,76.216 Z M93.942,76 L93.942,72.328 L95.94,70.528 L99.396,76 L102.6,76 L97.794,68.674 L102.51,63.652 L99.198,63.652 L93.942,69.268 L93.942,63.652 L91.26,63.652 L91.26,76 L93.942,76 Z M110.052,76 L110.052,65.902 L114.03,65.902 L114.03,63.652 L103.392,63.652 L103.392,65.902 L107.352,65.902 L107.352,76 L110.052,76 Z M118.53,76 L118.53,63.652 L115.848,63.652 L115.848,76 L118.53,76 Z M127.026,76.216 C128.358,76.216 129.495,75.982 130.437,75.514 C131.379,75.046 132.102,74.338 132.606,73.39 C133.11,72.442 133.362,71.254 133.362,69.826 C133.362,68.374 133.11,67.177 132.606,66.235 C132.102,65.293 131.379,64.591 130.437,64.129 C129.495,63.667 128.358,63.436 127.026,63.436 C125.718,63.436 124.59,63.667 123.642,64.129 C122.694,64.591 121.968,65.293 121.464,66.235 C120.96,67.177 120.708,68.374 120.708,69.826 C120.708,71.254 120.96,72.442 121.464,73.39 C121.968,74.338 122.694,75.046 123.642,75.514 C124.59,75.982 125.718,76.216 127.026,76.216 Z M127.026,74.02 C126.45,74.02 125.94,73.936 125.496,73.768 C125.052,73.6 124.68,73.348 124.38,73.012 C124.08,72.676 123.855,72.265 123.705,71.779 C123.555,71.293 123.48,70.738 123.48,70.114 L123.48,70.114 L123.48,69.556 C123.48,68.92 123.555,68.356 123.705,67.864 C123.855,67.372 124.08,66.961 124.38,66.631 C124.68,66.301 125.052,66.052 125.496,65.884 C125.94,65.716 126.45,65.632 127.026,65.632 C127.614,65.632 128.13,65.716 128.574,65.884 C129.018,66.052 129.39,66.301 129.69,66.631 C129.99,66.961 130.218,67.372 130.374,67.864 C130.53,68.356 130.608,68.92 130.608,69.556 L130.608,69.556 L130.608,70.114 C130.608,70.738 130.53,71.293 130.374,71.779 C130.218,72.265 129.99,72.676 129.69,73.012 C129.39,73.348 129.018,73.6 128.574,73.768 C128.13,73.936 127.614,74.02 127.026,74.02 Z M138.078,76 L138.078,68.152 L138.168,68.152 C138.228,68.26 138.324,68.416 138.456,68.62 C138.588,68.824 138.714,69.01 138.834,69.178 L138.834,69.178 L143.91,76 L146.376,76 L146.376,63.652 L143.838,63.652 L143.838,71.446 L143.748,71.446 C143.712,71.362 143.646,71.248 143.55,71.104 C143.454,70.96 143.352,70.813 143.244,70.663 C143.136,70.513 143.046,70.396 142.974,70.312 L142.974,70.312 L138.006,63.652 L135.54,63.652 L135.54,76 L138.078,76 Z" id="KONSTRUKTION" fill="#000000" fill-rule="nonzero"></path></g></g></g></g></svg>