<svg xmlns="http://www.w3.org/2000/svg" xmlns:xlink="http://www.w3.org/1999/xlink" width="132px" height="27px" viewBox="0 0 132 27"><title>salute</title><g id="Page-1" stroke="none" stroke-width="1" fill="none" fill-rule="evenodd"><g id="Home-1---Big-Construction-Company-1" transform="translate(-629.000000, -8277.000000)"><g id="Group-57" transform="translate(93.000000, 8252.000000)"><g id="Group-21" transform="translate(315.000000, 23.000000)"><g id="salute" transform="translate(222.000000, 3.000000)"><path d="M45.99,23.54 C47.61,23.54 49.085,23.3 50.415,22.82 C51.745,22.34 52.81,21.6 53.61,20.6 C54.41,19.6 54.81,18.35 54.81,16.85 C54.81,15.27 54.435,14.02 53.685,13.1 C52.935,12.18 51.96,11.515 50.76,11.105 C49.56,10.695 48.09,10.38 46.35,10.16 C44.83,9.96 43.67,9.68 42.87,9.32 C42.07,8.96 41.67,8.36 41.67,7.52 C41.67,6.82 42.045,6.215 42.795,5.705 C43.545,5.195 44.62,4.94 46.02,4.94 C47.12,4.94 48.13,5.17 49.05,5.63 C49.97,6.09 50.62,6.64 51,7.28 L54.15,5.66 C52.77,2.88 50.02,1.49 45.9,1.49 C44.56,1.49 43.265,1.715 42.015,2.165 C40.765,2.615 39.745,3.29 38.955,4.19 C38.165,5.09 37.77,6.16 37.77,7.4 C37.77,9.54 38.505,11.065 39.975,11.975 C41.445,12.885 43.46,13.48 46.02,13.76 C47.56,13.94 48.755,14.27 49.605,14.75 C50.455,15.23 50.88,15.93 50.88,16.85 C50.88,17.91 50.42,18.7 49.5,19.22 C48.58,19.74 47.43,20 46.05,20 C44.69,20 43.48,19.72 42.42,19.16 C41.3867532,18.6292739 40.5778711,17.7458895 40.14,16.67 L36.84,18.38 C37.58,20.22 38.72,21.54 40.26,22.34 C41.8,23.14 43.71,23.54 45.99,23.54 L45.99,23.54 Z M64.65,23.45 C65.57,23.45 66.5,23.22 67.44,22.76 C68.38,22.3 69.05,21.66 69.45,20.84 L69.63,23 L73.08,23 L73.08,8.21 L69.57,8.21 L69.45,10.25 C69.03,9.51 68.39,8.925 67.53,8.495 C66.6636944,8.06349955 65.7077923,7.84251144 64.74,7.85 C63.26,7.85 61.94,8.14 60.78,8.72 C59.62,9.3 58.705,10.175 58.035,11.345 C57.365,12.515 57.03,13.93 57.03,15.59 C57.03,17.27 57.355,18.7 58.005,19.88 C58.655,21.06 59.55,21.95 60.69,22.55 C61.83,23.15 63.15,23.45 64.65,23.45 L64.65,23.45 Z M65.07,20.09 C63.81,20.09 62.765,19.685 61.935,18.875 C61.105,18.065 60.69,16.97 60.69,15.59 C60.69,14.21 61.105,13.12 61.935,12.32 C62.765,11.52 63.81,11.12 65.07,11.12 C65.99,11.12 66.775,11.33 67.425,11.75 C68.075,12.17 68.565,12.725 68.895,13.415 C69.225,14.105 69.39,14.83 69.39,15.59 C69.39,16.37 69.225,17.105 68.895,17.795 C68.565,18.485 68.075,19.04 67.425,19.46 C66.775,19.88 65.99,20.09 65.07,20.09 Z M80.76,23 L80.76,2.03 L77.13,2.03 L77.13,23 L80.76,23 Z M90.69,23.42 C91.71,23.42 92.605,23.245 93.375,22.895 C94.145,22.545 94.92,21.98 95.7,21.2 L95.94,23.06 L99.21,23.06 L99.21,8.21 L95.58,8.21 L95.58,15.95 C95.58,17.11 95.23,18.09 94.53,18.89 C93.83,19.69 92.92,20.09 91.8,20.09 C90.66,20.09 89.78,19.72 89.16,18.98 C88.54,18.24 88.23,17.29 88.23,16.13 L88.23,8.21 L84.57,8.21 L84.57,16.16 C84.57,17.64 84.835,18.93 85.365,20.03 C85.895,21.13 86.62,21.97 87.54,22.55 C88.46,23.13 89.51,23.42 90.69,23.42 Z M109.83,23.36 C110.47,23.36 111.045,23.315 111.555,23.225 C112.107212,23.1220942 112.645752,22.9560023 113.16,22.73 L112.14,19.61 C111.5,19.91 110.91,20.06 110.37,20.06 C109.77,20.06 109.3,19.88 108.96,19.52 C108.62,19.16 108.45,18.64 108.45,17.96 L108.45,11.45 L112.56,11.45 L112.56,8.3 L108.48,8.3 L108.48,4.04 L104.82,4.43 L104.82,8.3 L102.06,8.3 L102.06,11.45 L104.82,11.45 L104.82,17.96 C104.82,19.72 105.265,21.06 106.155,21.98 C107.045,22.9 108.27,23.36 109.83,23.36 Z M122.88,23.45 C124.06,23.45 125.22,23.245 126.36,22.835 C127.5,22.425 128.46,21.83 129.24,21.05 L126.9,18.74 C126.48,19.16 125.89,19.495 125.13,19.745 C124.42462,19.9857965 123.685309,20.1123909 122.94,20.12 C121.66,20.12 120.635,19.83 119.865,19.25 C119.095,18.67 118.65,17.91 118.53,16.97 L130.08,16.97 C130.12,16.33 130.14,15.87 130.14,15.59 C130.14,13.07 129.465,11.145 128.115,9.815 C126.765,8.485 124.93,7.82 122.61,7.82 C121.03,7.82 119.65,8.15 118.47,8.81 C117.313479,9.44654153 116.361542,10.3984786 115.725,11.555 C115.075,12.725 114.75,14.06 114.75,15.56 C114.75,17.12 115.075,18.495 115.725,19.685 C116.366103,20.8662109 117.341964,21.8316346 118.53,22.46 C119.75,23.12 121.2,23.45 122.88,23.45 L122.88,23.45 Z M126.57,13.94 L118.59,13.94 C118.87,13 119.375,12.285 120.105,11.795 C120.835,11.305 121.71,11.06 122.73,11.06 C123.81,11.06 124.69,11.305 125.37,11.795 C126.05,12.285 126.45,13 126.57,13.94 Z" id="Shape" fill="#0A0909" fill-rule="nonzero"></path><g id="Group"><g id="a-link" fill="#0A0909" fill-rule="nonzero"><path d="M12.5,0 C15.277,0 17.5,2.223 17.5,5 L17.5,7.5 L20,7.5 C22.777,7.5 25,9.723 25,12.5 C25,15.277 22.777,17.5 20,17.5 C19.167,17.5 18.333,17.57 17.5,17.57 L17.5,20 C17.5,22.777 15.277,25.0000404 12.5,25.0000404 C11.1722868,25.005343 9.89741051,24.4802747 8.95856791,23.5414321 C8.0197253,22.6025895 7.49465702,21.3277132 7.5,20 L7.5,17.57 L5,17.5 C3.67228681,17.505343 2.39741051,16.9802747 1.45856791,16.0414321 C0.519725302,15.1025895 -0.00534297522,13.8277132 -4.03808347e-05,12.5 C-4.03808347e-05,9.723 2.292,7.5 5,7.5 L7.5,7.5 L7.5,5 C7.5,2.292 9.723,0 12.5,0 Z M16.274,17.567 L8.634,17.567 L8.634,20 C8.634,22.085 10.37,23.823 12.454,23.823 C14.537,23.823 16.274,22.085 16.274,20 L16.274,17.567 Z M8.634,16.413 L16.274,16.413 L16.274,8.726 L8.634,8.726 L8.634,16.413 Z M17.498,8.633 L17.498,16.274 L20,16.274 C22.085,16.274 23.823,14.537 23.823,12.454 C23.823,10.37 22.085,8.634 20,8.634 L17.498,8.634 L17.498,8.633 Z M7.502,8.633 L5,8.633 C2.915,8.633 1.177,10.37 1.177,12.453 C1.177,14.537 2.915,16.274 5,16.274 L7.502,16.274 L7.502,8.634 L7.502,8.633 Z M8.633,7.503 L16.274,7.503 L16.274,5 C16.274,2.915 14.537,1.177 12.454,1.177 C10.37,1.177 8.634,2.915 8.634,5 L8.634,7.502 L8.633,7.503 Z" id="a"></path></g><g id="a-link" fill="#0A0909" fill-rule="nonzero"><path d="M12.5,0 C15.277,0 17.5,2.223 17.5,5 L17.5,7.5 L20,7.5 C22.777,7.5 25,9.723 25,12.5 C25,15.277 22.777,17.5 20,17.5 C19.167,17.5 18.333,17.57 17.5,17.57 L17.5,20 C17.5,22.777 15.277,25.0000404 12.5,25.0000404 C11.1722868,25.005343 9.89741051,24.4802747 8.95856791,23.5414321 C8.0197253,22.6025895 7.49465702,21.3277132 7.5,20 L7.5,17.57 L5,17.5 C3.67228681,17.505343 2.39741051,16.9802747 1.45856791,16.0414321 C0.519725302,15.1025895 -0.00534297522,13.8277132 -4.03808347e-05,12.5 C-4.03808347e-05,9.723 2.292,7.5 5,7.5 L7.5,7.5 L7.5,5 C7.5,2.292 9.723,0 12.5,0 Z M16.274,17.567 L8.634,17.567 L8.634,20 C8.634,22.085 10.37,23.823 12.454,23.823 C14.537,23.823 16.274,22.085 16.274,20 L16.274,17.567 Z M8.634,16.413 L16.274,16.413 L16.274,8.726 L8.634,8.726 L8.634,16.413 Z M17.498,8.633 L17.498,16.274 L20,16.274 C22.085,16.274 23.823,14.537 23.823,12.454 C23.823,10.37 22.085,8.634 20,8.634 L17.498,8.634 L17.498,8.633 Z M7.502,8.633 L5,8.633 C2.915,8.633 1.177,10.37 1.177,12.453 C1.177,14.537 2.915,16.274 5,16.274 L7.502,16.274 L7.502,8.634 L7.502,8.633 Z M8.633,7.503 L16.274,7.503 L16.274,5 C16.274,2.915 14.537,1.177 12.454,1.177 C10.37,1.177 8.634,2.915 8.634,5 L8.634,7.502 L8.633,7.503 Z" id="a"></path></g><g id="a-link" fill="#0A0909" fill-rule="nonzero"><path d="M12.5,0 C15.277,0 17.5,2.223 17.5,5 L17.5,7.5 L20,7.5 C22.777,7.5 25,9.723 25,12.5 C25,15.277 22.777,17.5 20,17.5 C19.167,17.5 18.333,17.57 17.5,17.57 L17.5,20 C17.5,22.777 15.277,25.0000404 12.5,25.0000404 C11.1722868,25.005343 9.89741051,24.4802747 8.95856791,23.5414321 C8.0197253,22.6025895 7.49465702,21.3277132 7.5,20 L7.5,17.57 L5,17.5 C3.67228681,17.505343 2.39741051,16.9802747 1.45856791,16.0414321 C0.519725302,15.1025895 -0.00534297522,13.8277132 -4.03808347e-05,12.5 C-4.03808347e-05,9.723 2.292,7.5 5,7.5 L7.5,7.5 L7.5,5 C7.5,2.292 9.723,0 12.5,0 Z M16.274,17.567 L8.634,17.567 L8.634,20 C8.634,22.085 10.37,23.823 12.454,23.823 C14.537,23.823 16.274,22.085 16.274,20 L16.274,17.567 Z M8.634,16.413 L16.274,16.413 L16.274,8.726 L8.634,8.726 L8.634,16.413 Z M17.498,8.633 L17.498,16.274 L20,16.274 C22.085,16.274 23.823,14.537 23.823,12.454 C23.823,10.37 22.085,8.634 20,8.634 L17.498,8.634 L17.498,8.633 Z M7.502,8.633 L5,8.633 C2.915,8.633 1.177,10.37 1.177,12.453 C1.177,14.537 2.915,16.274 5,16.274 L7.502,16.274 L7.502,8.634 L7.502,8.633 Z M8.633,7.503 L16.274,7.503 L16.274,5 C16.274,2.915 14.537,1.177 12.454,1.177 C10.37,1.177 8.634,2.915 8.634,5 L8.634,7.502 L8.633,7.503 Z" id="a"></path></g><g id="a-link" fill="#0A0909" fill-rule="nonzero" stroke="#0A0909"><path d="M12.5,0 C15.277,0 17.5,2.223 17.5,5 L17.5,7.5 L20,7.5 C22.777,7.5 25,9.723 25,12.5 C25,15.277 22.777,17.5 20,17.5 C19.167,17.5 18.333,17.57 17.5,17.57 L17.5,20 C17.5,22.777 15.277,25.0000404 12.5,25.0000404 C11.1722868,25.005343 9.89741051,24.4802747 8.95856791,23.5414321 C8.0197253,22.6025895 7.49465702,21.3277132 7.5,20 L7.5,17.57 L5,17.5 C3.67228681,17.505343 2.39741051,16.9802747 1.45856791,16.0414321 C0.519725302,15.1025895 -0.00534297522,13.8277132 -4.03808347e-05,12.5 C-4.03808347e-05,9.723 2.292,7.5 5,7.5 L7.5,7.5 L7.5,5 C7.5,2.292 9.723,0 12.5,0 Z M16.274,17.567 L8.634,17.567 L8.634,20 C8.634,22.085 10.37,23.823 12.454,23.823 C14.537,23.823 16.274,22.085 16.274,20 L16.274,17.567 Z M8.634,16.413 L16.274,16.413 L16.274,8.726 L8.634,8.726 L8.634,16.413 Z M17.498,8.633 L17.498,16.274 L20,16.274 C22.085,16.274 23.823,14.537 23.823,12.454 C23.823,10.37 22.085,8.634 20,8.634 L17.498,8.634 L17.498,8.633 Z M7.502,8.633 L5,8.633 C2.915,8.633 1.177,10.37 1.177,12.453 C1.177,14.537 2.915,16.274 5,16.274 L7.502,16.274 L7.502,8.634 L7.502,8.633 Z M8.633,7.503 L16.274,7.503 L16.274,5 C16.274,2.915 14.537,1.177 12.454,1.177 C10.37,1.177 8.634,2.915 8.634,5 L8.634,7.502 L8.633,7.503 Z" id="a"></path></g><g id="a-link" stroke="#0A0909"><path d="M12.5,0 C15.277,0 17.5,2.223 17.5,5 L17.5,7.5 L20,7.5 C22.777,7.5 25,9.723 25,12.5 C25,15.277 22.777,17.5 20,17.5 C19.167,17.5 18.333,17.57 17.5,17.57 L17.5,20 C17.5,22.777 15.277,25.0000404 12.5,25.0000404 C11.1722868,25.005343 9.89741051,24.4802747 8.95856791,23.5414321 C8.0197253,22.6025895 7.49465702,21.3277132 7.5,20 L7.5,17.57 L5,17.5 C3.67228681,17.505343 2.39741051,16.9802747 1.45856791,16.0414321 C0.519725302,15.1025895 -0.00534297522,13.8277132 -4.03808347e-05,12.5 C-4.03808347e-05,9.723 2.292,7.5 5,7.5 L7.5,7.5 L7.5,5 C7.5,2.292 9.723,0 12.5,0 Z M16.274,17.567 L8.634,17.567 L8.634,20 C8.634,22.085 10.37,23.823 12.454,23.823 C14.537,23.823 16.274,22.085 16.274,20 L16.274,17.567 Z M8.634,16.413 L16.274,16.413 L16.274,8.726 L8.634,8.726 L8.634,16.413 Z M17.498,8.633 L17.498,16.274 L20,16.274 C22.085,16.274 23.823,14.537 23.823,12.454 C23.823,10.37 22.085,8.634 20,8.634 L17.498,8.634 L17.498,8.633 Z M7.502,8.633 L5,8.633 C2.915,8.633 1.177,10.37 1.177,12.453 C1.177,14.537 2.915,16.274 5,16.274 L7.502,16.274 L7.502,8.634 L7.502,8.633 Z M8.633,7.503 L16.274,7.503 L16.274,5 C16.274,2.915 14.537,1.177 12.454,1.177 C10.37,1.177 8.634,2.915 8.634,5 L8.634,7.502 L8.633,7.503 Z" id="a"></path></g></g></g></g></g></g></g></svg>