<svg xmlns="http://www.w3.org/2000/svg" xmlns:xlink="http://www.w3.org/1999/xlink" width="70px" height="24px" viewBox="0 0 70 24"><title>skole</title><g id="Page-1" stroke="none" stroke-width="1" fill="none" fill-rule="evenodd"><g id="Home-1---Big-Construction-Company-1" transform="translate(-1023.000000, -8278.000000)" fill="#0A0909" fill-rule="nonzero"><g id="Group-57" transform="translate(93.000000, 8252.000000)"><g id="Group-21" transform="translate(315.000000, 23.000000)"><g id="skole" transform="translate(615.000000, 3.000000)"><path d="M7.0928526,22.6214457 C8.84877307,23.5038261 10.7872909,23.9727851 12.7569061,23.9916724 C14.0825356,23.9916724 15.2876534,23.8129471 16.3722594,23.3959216 C17.3966095,22.919321 18.1799361,22.3235703 18.7824949,21.6086694 C19.8583764,20.1320495 19.8583764,18.1405581 18.7824949,16.6639383 C18.3004478,16.0086124 17.6978889,15.3532866 16.9748183,14.876686 C16.1412102,14.2762923 15.2763569,13.719495 14.3838151,13.208584 L13.4799768,12.7319834 L13.1184414,12.5532581 C12.7847503,12.3748744 12.4627487,12.1758973 12.1543472,11.9575074 C11.9133237,11.7787822 11.732556,11.5404819 11.732556,11.3021816 C11.732556,10.9447311 11.9133237,10.7064309 12.2146031,10.4085555 C12.5158826,10.1702552 12.9376738,10.1106801 13.4197209,10.1106801 C14.0222798,10.1106801 14.5645828,10.1106801 15.0466299,10.2298303 L17.0953301,10.825581 L18.4812155,7.72767715 C16.9510982,6.81811388 15.2048924,6.32483502 13.4197209,6.29787537 C12.0940913,6.29787537 11.0094853,6.53617567 10.0453911,6.95320119 C9.14853856,7.33228737 8.37644003,7.95123992 7.81592326,8.74045341 C6.75056636,10.1916008 6.7264203,12.1492067 7.75566738,13.6256095 C8.23771448,14.3405104 8.84027336,14.876686 9.50308814,15.3532866 L9.74411169,15.5320119 L12.1543472,16.9618136 L12.9376738,17.4384142 L13.4197209,17.7362896 L14.3838151,18.3320403 C14.6850945,18.5107656 14.8056063,18.7490659 14.8056063,18.9277911 C14.8056063,19.2852415 14.6248386,19.5831169 14.2030474,19.8809923 C13.7812562,20.1788676 13.2389532,20.2980178 12.5761384,20.2980178 C11.1901508,20.2140273 9.83646014,19.8490103 8.59924981,19.2256664 L7.0928526,22.6214457 L7.0928526,22.6214457 Z M26.1939692,23.693797 L26.1939692,19.7618421 L27.0375516,19.1660914 L29.4477872,23.693797 L34.4490259,23.693797 L30.2311137,16.7830884 L33.5451876,14.3405104 L30.7734167,11.1830314 L26.1939692,15.0554113 L26.1939692,6 L21.6145217,6.29787537 L21.6145217,23.693797 L26.1939692,23.693797 Z M48.9104391,17.7362896 C49.0410358,20.1092674 47.673789,22.3148335 45.4758535,23.2767715 C44.3912475,23.7533721 43.1861297,23.9916724 41.8605002,23.9916724 C40.0403824,24.0785732 38.2541902,23.4828106 36.8592614,22.3235703 C35.6541437,21.251219 35.0515848,19.642692 35.0515848,17.5575644 C35.0515848,16.2469127 35.2926083,15.1149863 35.8951672,14.1022101 C36.5093264,13.1442494 37.3873064,12.3795299 38.4259145,11.8979323 C39.5105205,11.3617567 40.6553824,11.1234564 41.9810119,11.1234564 C43.3066415,11.1234564 44.5117592,11.3617567 45.5963652,11.8979323 C46.6207153,12.3745329 47.4040419,13.0894338 48.0066008,14.1022101 C48.6091596,15.1149863 48.9104391,16.3064878 48.9104391,17.6767145 L48.9104391,17.7362896 Z M41.920756,20.2384427 C42.6438267,20.2384427 43.1861297,20.0597175 43.547665,19.642692 C43.9694562,19.1660914 44.1502239,18.5107656 44.1502239,17.6767145 C44.1502239,16.8426635 43.9694562,16.1873377 43.547665,15.651162 C43.2095744,15.1206889 42.61505,14.8041774 41.9810119,14.817111 C41.3181972,14.817111 40.7758942,15.0554113 40.354103,15.5915869 C39.9323117,16.0681875 39.7515441,16.7235133 39.7515441,17.5575644 C39.7515441,18.3916154 39.9323117,19.0469412 40.354103,19.5235418 C40.6553824,20.0001424 41.1976854,20.2384427 41.920756,20.2384427 Z M55.4783309,23.693797 L55.4783309,6 L50.8988834,6.29787537 L50.8988834,23.693797 L55.4783309,23.693797 Z M69.9397441,17.4384142 C69.9397441,16.2469127 69.7589764,15.2341365 69.3371852,14.2809353 C68.9152787,13.3328169 68.2246345,12.5258232 67.3487409,11.9575074 C65.2844301,10.8583816 62.8047737,10.836094 60.7205932,11.8979323 C59.7577517,12.4459063 58.9496674,13.2243743 58.3706136,14.1617851 C57.7728129,15.2147334 57.4808786,16.4105105 57.5270311,17.6171394 C57.5270311,18.9873661 57.8283106,20.1192926 58.4308694,21.0724937 C59.0334283,22.0256949 59.9372667,22.7405958 61.0218726,23.2171964 C62.1667345,23.7533721 63.4321082,23.9916724 64.8782495,23.9916724 C65.8581773,23.998804 66.8334773,23.8581798 67.7705321,23.5746469 C68.541666,23.4068933 69.2762802,23.1042624 69.9397441,22.6810207 L68.6743705,19.5831169 C67.6349871,20.1284453 66.4767015,20.4147449 65.3000407,20.4171679 C64.5167142,20.4171679 63.9141553,20.2980178 63.4923641,20.0001424 C63.0377773,19.72912 62.6959163,19.306622 62.5282698,18.8086409 L70,18.8086409 L70,17.4384142 L69.9397441,17.4384142 Z M62.4077581,16.485213 C62.4077581,16.0681875 62.5282698,15.651162 62.8898052,15.2937116 C63.1910846,14.9362611 63.55262,14.7575359 63.9744112,14.7575359 C64.5167142,14.7575359 64.9385054,14.9958362 65.1795289,15.3532866 C65.4205525,15.7107371 65.6013202,16.0681875 65.6013202,16.5447881 L62.4077581,16.5447881 L62.4077581,16.485213 Z" id="Shape"></path><path d="M2.05020469,4.57112765 C1.99407414,4.95738978 1.9379436,5.12293069 2.16246578,5.39883222 C2.4431185,5.61955344 3.11668505,5.78509435 3.50959887,6.44725801 C3.90251268,7.05424136 4.51994868,7.05424136 4.63220977,6.94388075 C4.85673195,6.83352014 5.36190686,6.3920777 4.57607923,5.67473374 L2.89216287,4.0193246 C2.61151014,3.90896399 2.10633523,4.29522612 2.05020469,4.57112765 Z" id="Path"></path><path d="M0.107423489,9.08384603 C0.230360162,9.40262428 0.353296836,9.72140252 0.722106856,9.72140252 C1.02944854,9.78515817 1.82853692,9.53013557 2.56615696,9.91266947 C3.303777,10.2314477 3.85699203,9.59389122 3.97992871,9.33886863 C3.97992871,9.14760168 4.22580205,8.70131214 2.99643532,8.44628954 C1.76706858,8.31877824 1.15238521,8.06375565 0.537701846,8 C-0.0769815218,8 -0.0769815218,8.70131214 0.107423489,9.08384603 Z" id="Path"></path><path d="M6.24904936,0.556417275 C6.08828869,0.860772256 5.92752802,1.04338524 6.0347018,1.34774023 C6.14187558,1.7129662 6.67774448,2.86951513 6.73133137,3.66083808 C6.73133137,4.45216103 7.0528527,5 7.26720026,5 C7.37437404,5 8.17817739,4.39129004 7.96382983,3.4173541 C7.69589538,2.44341816 7.32078715,0.373804286 7.16002648,0.130320301 C6.99926581,-0.234905676 6.46339692,0.252062294 6.24904936,0.556417275 L6.24904936,0.556417275 Z" id="Path"></path></g></g></g></g></g></svg>